<?xml version="1.0" encoding="UTF-8" standalone="no"?>
<!DOCTYPE svg PUBLIC "-//W3C//DTD SVG 1.1//EN" "http://www.w3.org/Graphics/SVG/1.1/DTD/svg11.dtd">
<svg width="100%" height="100%" viewBox="0 0 24 24" version="1.1" xmlns="http://www.w3.org/2000/svg" xmlns:xlink="http://www.w3.org/1999/xlink" xml:space="preserve" xmlns:serif="http://www.serif.com/" style="fill-rule:evenodd;clip-rule:evenodd;stroke-linecap:round;stroke-linejoin:round;">
    <g transform="matrix(1,0,0,1,0,-298)">
        <g id="favicon" transform="matrix(1,0,0,1,0,298)">
            <rect x="0" y="0" width="24" height="24" style="fill:none;"/>
            <clipPath id="_clip1">
                <rect x="0" y="0" width="24" height="24"/>
            </clipPath>
            <g clip-path="url(#_clip1)">
                <g transform="matrix(1.33333,1.4803e-16,-1.4803e-16,1.33333,-5.33333,-4)">
                    <circle cx="13" cy="12" r="9" style="fill:white;"/>
                </g>
                <g transform="matrix(0.96,1.06581e-16,-1.06581e-16,0.96,0.48,0.48)">
                    <path d="M22,12C22,14.743 19.743,17 17,17C14.257,17 12,14.743 12,12C12,9.257 9.743,7 7,7C4.257,7 2,9.257 2,12" style="fill:none;fill-rule:nonzero;stroke:black;stroke-width:2px;"/>
                    <path d="M7,20.7C5.445,19.806 4.483,18.144 4.483,16.35C4.483,13.598 6.748,11.333 9.5,11.333C10.377,11.333 11.239,11.563 12,12C12.759,12.441 13.622,12.674 14.5,12.674C17.229,12.674 19.474,10.429 19.474,7.7C19.474,5.931 18.53,4.289 17,3.4" style="fill:none;fill-rule:nonzero;stroke:black;stroke-width:2px;"/>
                    <path d="M7,3.3C7.759,2.859 8.622,2.626 9.5,2.626C12.229,2.626 14.474,4.871 14.474,7.6C14.474,9.369 13.53,11.011 12,11.9C10.47,12.789 9.526,14.431 9.526,16.2C9.526,18.929 11.771,21.174 14.5,21.174C15.378,21.174 16.241,20.941 17,20.5" style="fill:none;fill-rule:nonzero;stroke:black;stroke-width:2px;"/>
                    <circle cx="12" cy="12" r="10" style="fill:none;stroke:black;stroke-width:2px;"/>
                </g>
            </g>
        </g>
    </g>
</svg>
