<?xml version="1.0" encoding="UTF-8" standalone="no"?>
<!DOCTYPE svg PUBLIC "-//W3C//DTD SVG 1.1//EN" "http://www.w3.org/Graphics/SVG/1.1/DTD/svg11.dtd">
<svg width="100%" height="100%" viewBox="0 0 254 50" version="1.1" xmlns="http://www.w3.org/2000/svg" xmlns:xlink="http://www.w3.org/1999/xlink" xml:space="preserve" xmlns:serif="http://www.serif.com/" style="fill-rule:evenodd;clip-rule:evenodd;stroke-linejoin:round;stroke-miterlimit:2;">
    <g transform="matrix(1,0,0,1,-318,-15.5)">
        <g id="logo" transform="matrix(0.5,0,0,0.260417,158,93.1042)">
            <rect x="320" y="-298" width="508" height="192" style="fill:none;"/>
            <clipPath id="_clip1">
                <rect x="320" y="-298" width="508" height="192"/>
            </clipPath>
            <g clip-path="url(#_clip1)">
                <g transform="matrix(10.5496,0,0,20.2551,-4327.91,-1755.98)">
                    <path d="M440.579,80.498L441.428,80.498L441.428,73.631L440.579,73.631L440.579,72.83L445.347,72.83C445.719,72.83 446.063,72.87 446.378,72.951C446.694,73.032 446.967,73.159 447.197,73.333C447.428,73.507 447.608,73.73 447.737,74.001C447.867,74.272 447.931,74.597 447.931,74.977C447.931,75.269 447.883,75.536 447.786,75.778C447.689,76.021 447.555,76.233 447.385,76.415C447.216,76.597 447.017,76.751 446.791,76.876C446.564,77.002 446.318,77.093 446.051,77.149L447.616,79.782C447.778,80.057 447.946,80.245 448.119,80.346C448.293,80.447 448.51,80.498 448.769,80.498L448.829,80.498L448.829,81.299L447.677,81.299C447.394,81.299 447.147,81.277 446.937,81.232C446.726,81.188 446.54,81.117 446.378,81.02C446.217,80.923 446.075,80.801 445.954,80.656C445.832,80.51 445.719,80.332 445.614,80.122L444.304,77.55L443.394,77.55L443.394,80.498L444.243,80.498L444.243,81.299L440.579,81.299L440.579,80.498ZM443.394,76.725L444.607,76.725C445.472,76.725 445.905,76.34 445.905,75.572L445.905,74.856C445.905,74.088 445.472,73.703 444.607,73.703L443.394,73.703L443.394,76.725Z" style="fill:white;fill-rule:nonzero;"/>
                    <path d="M452.263,81.444C451.761,81.444 451.319,81.362 450.934,81.196C450.55,81.03 450.227,80.799 449.964,80.504C449.701,80.209 449.501,79.857 449.363,79.449C449.226,79.04 449.157,78.593 449.157,78.108C449.157,77.598 449.228,77.137 449.369,76.725C449.511,76.312 449.713,75.964 449.976,75.681C450.239,75.398 450.554,75.18 450.922,75.026C451.29,74.872 451.701,74.795 452.154,74.795C452.607,74.795 453.015,74.864 453.379,75.002C453.743,75.139 454.053,75.335 454.307,75.59C454.562,75.845 454.758,76.154 454.896,76.518C455.033,76.882 455.102,77.287 455.102,77.732L455.102,78.144L451.11,78.144L451.11,78.63C451.11,79.171 451.252,79.58 451.535,79.855C451.818,80.13 452.194,80.268 452.663,80.268C453.1,80.268 453.452,80.168 453.719,79.97C453.986,79.772 454.176,79.531 454.289,79.248L454.957,79.649C454.884,79.851 454.779,80.057 454.641,80.268C454.504,80.478 454.326,80.67 454.107,80.844C453.889,81.018 453.626,81.161 453.319,81.275C453.011,81.388 452.659,81.444 452.263,81.444ZM451.11,77.38L453.197,77.38L453.197,77.21C453.197,76.628 453.104,76.219 452.918,75.984C452.732,75.75 452.477,75.633 452.154,75.633C451.83,75.633 451.575,75.75 451.389,75.984C451.203,76.219 451.11,76.628 451.11,77.21L451.11,77.38Z" style="fill:white;fill-rule:nonzero;"/>
                    <path d="M456.085,75.742L455.515,75.742L455.515,74.941L458.706,74.941L458.706,75.742L458.026,75.742L459.361,79.709L459.422,79.709L460.659,75.742L459.98,75.742L459.98,74.941L462.212,74.941L462.212,75.742L461.642,75.742L459.579,81.299L458.148,81.299L456.085,75.742Z" style="fill:white;fill-rule:nonzero;"/>
                    <path d="M464.372,74.104C464.032,74.104 463.767,74.011 463.577,73.825C463.387,73.639 463.292,73.388 463.292,73.073L463.292,73.012C463.292,72.696 463.387,72.446 463.577,72.26C463.767,72.074 464.032,71.981 464.372,71.981C464.712,71.981 464.977,72.074 465.167,72.26C465.357,72.446 465.452,72.696 465.452,73.012L465.452,73.073C465.452,73.388 465.357,73.639 465.167,73.825C464.977,74.011 464.712,74.104 464.372,74.104ZM462.734,80.498L463.462,80.498L463.462,76.166L462.734,76.009L462.734,75.317L465.306,74.795L465.306,80.498L466.034,80.498L466.034,81.299L462.734,81.299L462.734,80.498Z" style="fill:white;fill-rule:nonzero;"/>
                    <path d="M466.993,75.742L466.422,75.742L466.422,74.941L469.613,74.941L469.613,75.742L468.934,75.742L470.269,79.709L470.329,79.709L471.567,75.742L470.887,75.742L470.887,74.941L473.12,74.941L473.12,75.742L472.55,75.742L470.487,81.299L469.055,81.299L466.993,75.742Z" style="fill:white;fill-rule:nonzero;"/>
                    <path d="M472.938,80.498L473.545,80.498L476.178,72.83L477.852,72.83L480.485,80.498L481.092,80.498L481.092,81.299L477.536,81.299L477.536,80.498L478.507,80.498L477.925,78.714L475.158,78.714L474.576,80.498L475.547,80.498L475.547,81.299L472.938,81.299L472.938,80.498ZM475.401,77.877L477.706,77.877L476.566,74.31L476.517,74.31L475.401,77.877Z" style="fill:white;fill-rule:nonzero;"/>
                    <path d="M481.747,80.498L482.596,80.498L482.596,73.631L481.747,73.631L481.747,72.83L485.411,72.83L485.411,73.631L484.562,73.631L484.562,80.498L485.411,80.498L485.411,81.299L481.747,81.299L481.747,80.498Z" style="fill:white;fill-rule:nonzero;"/>
                    <path d="M487.619,81.444C487.263,81.444 486.992,81.341 486.806,81.135C486.62,80.929 486.527,80.68 486.527,80.389L486.527,80.34C486.527,80.049 486.62,79.8 486.806,79.594C486.992,79.388 487.263,79.285 487.619,79.285C487.975,79.285 488.246,79.388 488.432,79.594C488.618,79.8 488.711,80.049 488.711,80.34L488.711,80.389C488.711,80.68 488.618,80.929 488.432,81.135C488.246,81.341 487.975,81.444 487.619,81.444Z" style="fill:white;fill-rule:nonzero;"/>
                </g>
            </g>
        </g>
    </g>
</svg>
